<svg version="1" xmlns="http://www.w3.org/2000/svg" width="341.333" height="341.333" viewBox="0 0 256.000000 256.000000"><path d="M229.5 1.4c-11.8 2.9-31.1 12.2-48.1 23.1l-8.1 5.2-1.2 10.4c-.7 5.7-1.5 12.1-1.8 14.1l-.5 3.7-4.6-9.4c-2.5-5.2-4.8-9.5-5.1-9.5-1.3 0-28.2 21.6-41.1 33-7.4 6.5-17.6 16-22.5 21.2l-9.1 9.3-5.8 26.5c-3.3 14.6-6.2 26.8-6.5 27.2-.4.5-2-5.8-3.5-14-1.6-8.1-3.2-15.1-3.6-15.5-.4-.5-3.4 2.9-6.6 7.4l-5.8 8.3-2.8 21C51.3 175 50 184.7 50 185c-.1.3-2-3.3-4.4-7.9l-4.3-8.4-1.8 6.4c-2.3 8-3.1 21.1-1.6 26.4l1.1 4L19.5 225C2.7 241.9 0 245 0 247.7c0 4.1 4.2 8.3 8.3 8.3 2.7 0 5.8-2.7 22.7-19.5L50.5 217l4 1.1c5.3 1.5 18.4.7 26.4-1.6l6.4-1.8-8.4-4.3c-4.6-2.4-8.2-4.3-7.9-4.4.3 0 10-1.3 21.6-2.8l21-2.8 8.3-5.8c4.5-3.2 7.9-6.1 7.6-6.5-.4-.3-7.5-2-15.8-3.7-8.4-1.7-14.5-3.4-13.7-3.7.8-.3 13.4-3.3 28-6.6l26.5-6 12.4-12.8c40.4-41.7 74.6-90.2 85.6-121.8 3.9-11 4.1-22.4.6-27.4-4.2-5.9-12.3-7.5-23.6-4.7z"/></svg>